<svg width="64" height="64" viewBox="0 0 64 64" fill="none" xmlns="http://www.w3.org/2000/svg">
<path d="M40 53.3333C39.4222 53.3333 38.9444 53.1444 38.5666 52.7666C38.1889 52.3889 38 51.9111 38 51.3333C38 50.7555 38.1889 50.2777 38.5666 49.9C38.9444 49.5222 39.4222 49.3333 40 49.3333H46C46.9333 49.3333 47.7222 49.0111 48.3666 48.3666C49.0111 47.7222 49.3333 46.9333 49.3333 46V39.3333C49.3333 37.6888 49.8333 36.2222 50.8333 34.9333C51.8333 33.6444 53.1111 32.7555 54.6666 32.2666V31.7333C53.1111 31.2888 51.8333 30.4111 50.8333 29.1C49.8333 27.7888 49.3333 26.3111 49.3333 24.6666V18C49.3333 17.0666 49.0111 16.2777 48.3666 15.6333C47.7222 14.9888 46.9333 14.6666 46 14.6666H40C39.4222 14.6666 38.9444 14.4777 38.5666 14.1C38.1889 13.7222 38 13.2444 38 12.6666C38 12.0888 38.1889 11.6111 38.5666 11.2333C38.9444 10.8555 39.4222 10.6666 40 10.6666H46C48.0444 10.6666 49.7778 11.3777 51.2 12.8C52.6222 14.2222 53.3333 15.9555 53.3333 18V24.6666C53.3333 25.6 53.6555 26.3888 54.3 27.0333C54.9444 27.6777 55.7333 28 56.6666 28C57.2444 28 57.7222 28.1888 58.1 28.5666C58.4778 28.9444 58.6666 29.4222 58.6666 30V34C58.6666 34.5333 58.4778 35 58.1 35.4C57.7222 35.8 57.2444 36 56.6666 36C55.7333 36 54.9444 36.3222 54.3 36.9666C53.6555 37.6111 53.3333 38.4 53.3333 39.3333V46C53.3333 48.0444 52.6222 49.7777 51.2 51.2C49.7778 52.6222 48.0444 53.3333 46 53.3333H40ZM18 53.3333C15.9555 53.3333 14.2222 52.6222 12.8 51.2C11.3778 49.7777 10.6666 48.0444 10.6666 46V39.3333C10.6666 38.4 10.3444 37.6111 9.69998 36.9666C9.05554 36.3222 8.26665 36 7.33331 36C6.79998 36 6.33331 35.8 5.93331 35.4C5.53331 35 5.33331 34.5333 5.33331 34V30C5.33331 29.4222 5.53331 28.9444 5.93331 28.5666C6.33331 28.1888 6.79998 28 7.33331 28C8.26665 28 9.05554 27.6777 9.69998 27.0333C10.3444 26.3888 10.6666 25.6 10.6666 24.6666V18C10.6666 15.9555 11.3778 14.2222 12.8 12.8C14.2222 11.3777 15.9555 10.6666 18 10.6666H24C24.5778 10.6666 25.0555 10.8555 25.4333 11.2333C25.8111 11.6111 26 12.0888 26 12.6666C26 13.2444 25.8111 13.7222 25.4333 14.1C25.0555 14.4777 24.5778 14.6666 24 14.6666H18C17.0666 14.6666 16.2778 14.9888 15.6333 15.6333C14.9889 16.2777 14.6666 17.0666 14.6666 18V24.6666C14.6666 26.3111 14.1666 27.7888 13.1666 29.1C12.1666 30.4111 10.8889 31.2888 9.33331 31.7333V32.2666C10.8889 32.7555 12.1666 33.6444 13.1666 34.9333C14.1666 36.2222 14.6666 37.6888 14.6666 39.3333V46C14.6666 46.9333 14.9889 47.7222 15.6333 48.3666C16.2778 49.0111 17.0666 49.3333 18 49.3333H24C24.5778 49.3333 25.0555 49.5222 25.4333 49.9C25.8111 50.2777 26 50.7555 26 51.3333C26 51.9111 25.8111 52.3889 25.4333 52.7666C25.0555 53.1444 24.5778 53.3333 24 53.3333H18Z" fill="#2E4052"/>
</svg>
