<svg width="16" height="14" viewBox="0 0 16 14" fill="none" xmlns="http://www.w3.org/2000/svg">
<path d="M8.00008 3.33335C9.84008 3.33335 11.3334 4.82668 11.3334 6.66668C11.3334 7.00668 11.2667 7.33335 11.1734 7.64002L13.2134 9.68002C14.1401 8.86002 14.8734 7.83335 15.3334 6.66002C14.1801 3.74002 11.3334 1.66668 8.00008 1.66668C7.15341 1.66668 6.34008 1.80002 5.57341 2.04668L7.02008 3.49335C7.33341 3.40002 7.66008 3.33335 8.00008 3.33335ZM1.80675 1.10668C1.54675 1.36668 1.54675 1.78668 1.80675 2.04668L3.12008 3.36002C2.04008 4.22002 1.18008 5.35335 0.666748 6.66668C1.82008 9.59335 4.66675 11.6667 8.00008 11.6667C9.01342 11.6667 9.98008 11.4667 10.8734 11.12L12.6867 12.9333C12.9467 13.1933 13.3667 13.1933 13.6267 12.9333C13.8867 12.6733 13.8867 12.2533 13.6267 11.9933L2.75341 1.10668C2.49341 0.846682 2.06675 0.846682 1.80675 1.10668ZM8.00008 10C6.16008 10 4.66675 8.50668 4.66675 6.66668C4.66675 6.15335 4.78675 5.66668 4.99341 5.24002L6.04008 6.28668C6.02008 6.40668 6.00008 6.53335 6.00008 6.66668C6.00008 7.77335 6.89341 8.66668 8.00008 8.66668C8.13341 8.66668 8.25341 8.64668 8.38008 8.62002L9.42675 9.66668C8.99341 9.88002 8.51341 10 8.00008 10ZM9.98008 6.44668C9.88008 5.51335 9.14675 4.78668 8.22008 4.68668L9.98008 6.44668Z" fill="#2E4052"/>
</svg>
