<svg width="16" height="11" viewBox="0 0 16 11" fill="none" xmlns="http://www.w3.org/2000/svg">
<path d="M8.00008 0.666687C4.66675 0.666687 1.82008 2.74002 0.666748 5.66669C1.82008 8.59335 4.66675 10.6667 8.00008 10.6667C11.3334 10.6667 14.1801 8.59335 15.3334 5.66669C14.1801 2.74002 11.3334 0.666687 8.00008 0.666687ZM8.00008 9.00002C6.16008 9.00002 4.66675 7.50669 4.66675 5.66669C4.66675 3.82669 6.16008 2.33335 8.00008 2.33335C9.84008 2.33335 11.3334 3.82669 11.3334 5.66669C11.3334 7.50669 9.84008 9.00002 8.00008 9.00002ZM8.00008 3.66669C6.89341 3.66669 6.00008 4.56002 6.00008 5.66669C6.00008 6.77335 6.89341 7.66669 8.00008 7.66669C9.10675 7.66669 10.0001 6.77335 10.0001 5.66669C10.0001 4.56002 9.10675 3.66669 8.00008 3.66669Z" fill="#2E4052"/>
</svg>
