<svg width="24" height="25" viewBox="0 0 24 25" fill="none" xmlns="http://www.w3.org/2000/svg">
<path d="M18 4.5H20C21.1 4.5 22 5.4 22 6.5V8.5C22 9.05 21.55 9.5 21 9.5C20.45 9.5 20 9.05 20 8.5V6.5H18C17.45 6.5 17 6.05 17 5.5C17 4.95 17.45 4.5 18 4.5ZM4 8.5V6.5H6C6.55 6.5 7 6.05 7 5.5C7 4.95 6.55 4.5 6 4.5H4C2.9 4.5 2 5.4 2 6.5V8.5C2 9.05 2.45 9.5 3 9.5C3.55 9.5 4 9.05 4 8.5ZM20 16.5V18.5H18C17.45 18.5 17 18.95 17 19.5C17 20.05 17.45 20.5 18 20.5H20C21.1 20.5 22 19.6 22 18.5V16.5C22 15.95 21.55 15.5 21 15.5C20.45 15.5 20 15.95 20 16.5ZM6 18.5H4V16.5C4 15.95 3.55 15.5 3 15.5C2.45 15.5 2 15.95 2 16.5V18.5C2 19.6 2.9 20.5 4 20.5H6C6.55 20.5 7 20.05 7 19.5C7 18.95 6.55 18.5 6 18.5ZM16 8.5H8C6.9 8.5 6 9.4 6 10.5V14.5C6 15.6 6.9 16.5 8 16.5H16C17.1 16.5 18 15.6 18 14.5V10.5C18 9.4 17.1 8.5 16 8.5Z" fill="#2E4052"/>
</svg>
