<svg xmlns="http://www.w3.org/2000/svg" width="58.102" height="56.366" viewBox="0 0 58.102 56.366">
  <path id="github" d="M27.809,2.232a28.983,28.983,0,0,0-7.271,55.844,1.337,1.337,0,0,0,1.745-1.454V51.968a12,12,0,0,1-2.618.291,6.275,6.275,0,0,1-6.108-5.526,6.035,6.035,0,0,0-1.745-2.909c-.873-.291-1.163-.291-1.163-.582,0-.582.873-.582,1.163-.582,1.745,0,3.2,2.036,3.781,2.909,1.454,2.327,3.2,2.909,4.072,2.909a5.808,5.808,0,0,0,2.618-.582,7.371,7.371,0,0,1,2.909-5.235c-6.69-1.454-11.634-5.235-11.634-11.634a13.709,13.709,0,0,1,3.49-8.726,10.788,10.788,0,0,1-.582-4.072,8.59,8.59,0,0,1,.582-3.781.929.929,0,0,1,.873-.873h.291a13.814,13.814,0,0,1,6.981,3.781,18.754,18.754,0,0,1,5.817-.873,18.754,18.754,0,0,1,5.817.873A14.42,14.42,0,0,1,44.1,13.575h.291c.582,0,.873.291,1.163.873v3.781a9.671,9.671,0,0,1-.582,4.072,13.1,13.1,0,0,1,3.49,8.726c0,6.4-4.945,10.18-11.634,11.634a8.968,8.968,0,0,1,2.909,6.69v7.562a1.585,1.585,0,0,0,2.036,1.454A29.2,29.2,0,0,0,27.809,2.232Z" transform="translate(-1.999 -2.067)" fill="#2E4052"/>
</svg>