<svg xmlns="http://www.w3.org/2000/svg" width="52.738" height="52.738" viewBox="0 0 52.738 52.738">
  <path id="linkedin" d="M50.46,4H10.278A6.281,6.281,0,0,0,4,10.278V50.46a6.281,6.281,0,0,0,6.278,6.278H50.46a6.281,6.281,0,0,0,6.278-6.278V10.278A6.281,6.281,0,0,0,50.46,4ZM20.324,24.091V47.949H12.79V24.091ZM12.79,17.147c0-1.758,1.507-3.1,3.767-3.1s3.679,1.344,3.767,3.1c0,1.758-1.406,3.177-3.767,3.177C14.3,20.324,12.79,18.9,12.79,17.147Zm35.159,30.8H40.415V35.392c0-2.511-1.256-5.023-4.4-5.073h-.1c-3.039,0-4.294,2.587-4.294,5.073V47.949h-7.53V24.091h7.534v3.215a9.4,9.4,0,0,1,7.3-3.215c4.985,0,9.028,3.428,9.028,10.372Z" transform="translate(-4 -4)" fill="#2E4052"/>
</svg>