<svg width="64" height="64" viewBox="0 0 64 64" fill="none" xmlns="http://www.w3.org/2000/svg">
<path d="M14.6666 58.6666C13.5555 58.6666 12.6111 58.2777 11.8333 57.5C11.0555 56.7222 10.6666 55.7777 10.6666 54.6666V25.7333C10.6666 24.6222 11.0555 23.6777 11.8333 22.9C12.6111 22.1222 13.5555 21.7333 14.6666 21.7333H19.3333V15.3333C19.3333 11.8222 20.5666 8.83329 23.0333 6.36663C25.5 3.89996 28.4888 2.66663 32 2.66663C35.5111 2.66663 38.5 3.89996 40.9666 6.36663C43.4333 8.83329 44.6666 11.8222 44.6666 15.3333V21.7333H49.3333C50.4444 21.7333 51.3888 22.1222 52.1666 22.9C52.9444 23.6777 53.3333 24.6222 53.3333 25.7333V54.6666C53.3333 55.7777 52.9444 56.7222 52.1666 57.5C51.3888 58.2777 50.4444 58.6666 49.3333 58.6666H14.6666ZM23.3333 21.7333H40.6666V15.3333C40.6666 12.9333 39.8222 10.8888 38.1333 9.19996C36.4444 7.51107 34.4 6.66663 32 6.66663C29.6 6.66663 27.5555 7.51107 25.8666 9.19996C24.1777 10.8888 23.3333 12.9333 23.3333 15.3333V21.7333ZM32 50.8666C32.5777 50.8666 33.0555 50.6777 33.4333 50.3C33.8111 49.9222 34 49.4444 34 48.8666V41.8666H41C41.5777 41.8666 42.0555 41.6777 42.4333 41.3C42.8111 40.9222 43 40.4444 43 39.8666C43 39.2888 42.8111 38.8111 42.4333 38.4333C42.0555 38.0555 41.5777 37.8666 41 37.8666H34V30.8666C34 30.2888 33.8111 29.8111 33.4333 29.4333C33.0555 29.0555 32.5777 28.8666 32 28.8666C31.4222 28.8666 30.9444 29.0555 30.5666 29.4333C30.1888 29.8111 30 30.2888 30 30.8666V37.8666H23C22.4222 37.8666 21.9444 38.0555 21.5666 38.4333C21.1888 38.8111 21 39.2888 21 39.8666C21 40.4444 21.1888 40.9222 21.5666 41.3C21.9444 41.6777 22.4222 41.8666 23 41.8666H30V48.8666C30 49.4444 30.1888 49.9222 30.5666 50.3C30.9444 50.6777 31.4222 50.8666 32 50.8666Z" fill="#2E4052"/>
</svg>
