<svg width="48" height="48" viewBox="0 0 48 48" fill="none" xmlns="http://www.w3.org/2000/svg">
<path d="M24 44C21.2667 44 18.6833 43.475 16.25 42.425C13.8167 41.375 11.6917 39.9417 9.875 38.125C8.05833 36.3083 6.625 34.1833 5.575 31.75C4.525 29.3167 4 26.7333 4 24C4 21.2 4.53333 18.5833 5.6 16.15C6.66667 13.7167 8.125 11.6 9.975 9.8C11.825 8 13.9917 6.58333 16.475 5.55C18.9583 4.51667 21.6167 4 24.45 4C27.0833 4 29.5833 4.44167 31.95 5.325C34.3167 6.20833 36.3917 7.43333 38.175 9C39.9583 10.5667 41.375 12.425 42.425 14.575C43.475 16.725 44 19.0833 44 21.65C44 25.25 42.95 28.0917 40.85 30.175C38.75 32.2583 35.9667 33.3 32.5 33.3H28.75C28.15 33.3 27.6333 33.5333 27.2 34C26.7667 34.4667 26.55 34.9833 26.55 35.55C26.55 36.2167 26.7917 36.85 27.275 37.45C27.7583 38.05 28 38.7667 28 39.6C28 40.4667 27.5917 41.4167 26.775 42.45C25.9583 43.4833 25.0333 44 24 44ZM12.35 25.3C13.0167 25.3 13.6 25.05 14.1 24.55C14.6 24.05 14.85 23.4667 14.85 22.8C14.85 22.1333 14.6 21.55 14.1 21.05C13.6 20.55 13.0167 20.3 12.35 20.3C11.6833 20.3 11.1 20.55 10.6 21.05C10.1 21.55 9.85 22.1333 9.85 22.8C9.85 23.4667 10.1 24.05 10.6 24.55C11.1 25.05 11.6833 25.3 12.35 25.3ZM18.65 16.8C19.3167 16.8 19.9 16.55 20.4 16.05C20.9 15.55 21.15 14.9667 21.15 14.3C21.15 13.6333 20.9 13.05 20.4 12.55C19.9 12.05 19.3167 11.8 18.65 11.8C17.9833 11.8 17.4 12.05 16.9 12.55C16.4 13.05 16.15 13.6333 16.15 14.3C16.15 14.9667 16.4 15.55 16.9 16.05C17.4 16.55 17.9833 16.8 18.65 16.8ZM29.35 16.8C30.0167 16.8 30.6 16.55 31.1 16.05C31.6 15.55 31.85 14.9667 31.85 14.3C31.85 13.6333 31.6 13.05 31.1 12.55C30.6 12.05 30.0167 11.8 29.35 11.8C28.6833 11.8 28.1 12.05 27.6 12.55C27.1 13.05 26.85 13.6333 26.85 14.3C26.85 14.9667 27.1 15.55 27.6 16.05C28.1 16.55 28.6833 16.8 29.35 16.8ZM35.9 25.3C36.5667 25.3 37.15 25.05 37.65 24.55C38.15 24.05 38.4 23.4667 38.4 22.8C38.4 22.1333 38.15 21.55 37.65 21.05C37.15 20.55 36.5667 20.3 35.9 20.3C35.2333 20.3 34.65 20.55 34.15 21.05C33.65 21.55 33.4 22.1333 33.4 22.8C33.4 23.4667 33.65 24.05 34.15 24.55C34.65 25.05 35.2333 25.3 35.9 25.3Z" fill="#2E4052"/>
</svg>
