<svg width="150" height="150" viewBox="0 0 150 150" fill="none" xmlns="http://www.w3.org/2000/svg">
<g clip-path="url(#clip0)">
<path d="M150 0H0V150H150V0Z" fill="#989898" fill-opacity="0.2"/>
<path fill-rule="evenodd" clip-rule="evenodd" d="M124.162 150.16H133C129.838 128.056 114.422 110.041 93.8607 103.054C103.401 96.9833 109.689 86.142 109.689 73.9997C109.689 54.919 94.0776 39.3075 74.9968 39.3075C55.9161 39.3075 40.3046 54.919 40.3046 73.9997C40.3046 86.142 46.5926 96.9833 56.1329 103.054C35.585 110.037 20.1765 128.215 17 150.16H25.8319C29.8275 126.622 50.3232 108.692 74.9968 108.692C99.6704 108.692 120.166 126.622 124.162 150.16ZM74.9968 47.9805C60.6863 47.9805 48.9777 59.6892 48.9777 73.9997C48.9777 88.3103 60.6863 100.019 74.9968 100.019C89.3074 100.019 101.016 88.3103 101.016 73.9997C101.016 59.6892 89.3074 47.9805 74.9968 47.9805Z" fill="black" fill-opacity="0.4"/>
</g>
<defs>
<clipPath id="clip0">
<rect width="150" height="150" fill="white"/>
</clipPath>
</defs>
</svg>
