<svg width="48" height="48" viewBox="0 0 48 48" fill="none" xmlns="http://www.w3.org/2000/svg">
<path d="M13.15 24.75L6.9 22C6.43333 21.8 6.15 21.4417 6.05 20.925C5.95 20.4084 6.08333 19.9667 6.45 19.6L13.25 12.75C13.7167 12.2834 14.275 11.95 14.925 11.75C15.575 11.55 16.2333 11.5167 16.9 11.65L20.75 12.4C18.9167 14.4667 17.4333 16.425 16.3 18.275C15.1667 20.125 14.1167 22.2834 13.15 24.75ZM42.15 4.85003C42.35 4.88336 42.55 4.9417 42.75 5.02503C42.95 5.10836 43.1333 5.23336 43.3 5.40003C43.4667 5.5667 43.5917 5.7417 43.675 5.92503C43.7583 6.10836 43.8167 6.30003 43.85 6.50003C44.0833 9.6667 43.4667 12.9667 42 16.4C40.5333 19.8334 38.45 22.9 35.75 25.6C33.95 27.4 32.1167 28.925 30.25 30.175C28.3833 31.425 26.4 32.4334 24.3 33.2C23.9333 33.3667 23.575 33.425 23.225 33.375C22.875 33.325 22.6 33.2 22.4 33L15.65 26.25C15.45 26.05 15.325 25.775 15.275 25.425C15.225 25.075 15.2833 24.7167 15.45 24.35C16.25 22.25 17.275 20.2584 18.525 18.375C19.775 16.4917 21.2833 14.6667 23.05 12.9C25.75 10.2 28.8167 8.12503 32.25 6.67503C35.6833 5.22503 38.9833 4.6167 42.15 4.85003ZM29.3 19.35C29.9667 20.0167 30.7917 20.35 31.775 20.35C32.7583 20.35 33.5833 20.0167 34.25 19.35C34.9167 18.6834 35.25 17.8584 35.25 16.875C35.25 15.8917 34.9167 15.0667 34.25 14.4C33.5833 13.7334 32.7583 13.4 31.775 13.4C30.7917 13.4 29.9667 13.7334 29.3 14.4C28.6333 15.0667 28.3 15.8917 28.3 16.875C28.3 17.8584 28.6333 18.6834 29.3 19.35ZM23.95 35.5C26.4167 34.5334 28.575 33.4834 30.425 32.35C32.275 31.2167 34.2333 29.7334 36.3 27.9L37 31.75C37.1333 32.4167 37.1 33.075 36.9 33.725C36.7 34.375 36.3667 34.9334 35.9 35.4L29.1 42.2C28.7333 42.5667 28.2833 42.7 27.75 42.6C27.2167 42.5 26.85 42.2167 26.65 41.75L23.95 35.5ZM8.1 32.1C9.26667 30.9334 10.6833 30.3417 12.35 30.325C14.0167 30.3084 15.4333 30.8834 16.6 32.05C17.7667 33.2167 18.35 34.6334 18.35 36.3C18.35 37.9667 17.7667 39.3834 16.6 40.55C15.7333 41.4167 14.3833 42.1334 12.55 42.7C10.7167 43.2667 7.98333 43.8 4.35 44.3C4.85 40.6667 5.38333 37.9417 5.95 36.125C6.51667 34.3084 7.23333 32.9667 8.1 32.1Z" fill="#2E4052"/>
</svg>
