<svg width="64" height="64" viewBox="0 0 64 64" fill="none" xmlns="http://www.w3.org/2000/svg">
<path d="M10.1333 54.3333L8.59999 53.8667C7.17777 53.2444 6.2111 52.1778 5.69999 50.6667C5.18888 49.1555 5.33333 47.6667 6.13333 46.2L10.1333 37.1333V54.3333ZM22.5333 59.5333C21.0222 59.5333 19.7333 59 18.6667 57.9333C17.6 56.8667 17.0667 55.5778 17.0667 54.0667V40.2667L23.2 57.7333C23.2889 58.0889 23.4222 58.4 23.6 58.6667C23.7778 58.9333 24 59.2222 24.2667 59.5333H22.5333ZM35.0667 57.9333C34.1333 58.3333 33.1556 58.2444 32.1333 57.6667C31.1111 57.0889 30.3778 56.2889 29.9333 55.2667L17.2 20.6667C16.7555 19.6444 16.8 18.6444 17.3333 17.6667C17.8667 16.6889 18.6889 15.9778 19.8 15.5333L41 7.86665C42.0222 7.5111 43.0222 7.59999 44 8.13332C44.9778 8.66665 45.6889 9.46665 46.1333 10.5333L58.8667 44.7333C59.1778 45.8444 59.1111 46.9333 58.6667 48C58.2222 49.0667 57.4444 49.8 56.3333 50.2L35.0667 57.9333ZM29.6 24.9333C30.1333 24.9333 30.6 24.7333 31 24.3333C31.4 23.9333 31.6 23.4667 31.6 22.9333C31.6 22.4 31.4 21.9333 31 21.5333C30.6 21.1333 30.1333 20.9333 29.6 20.9333C29.0667 20.9333 28.6 21.1333 28.2 21.5333C27.8 21.9333 27.6 22.4 27.6 22.9333C27.6 23.4667 27.8 23.9333 28.2 24.3333C28.6 24.7333 29.0667 24.9333 29.6 24.9333Z" fill="#2E4052"/>
</svg>
