<svg width="48" height="48" viewBox="0 0 48 48" fill="none" xmlns="http://www.w3.org/2000/svg">
<path d="M35.55 45.9C35.15 45.9666 34.7917 45.8583 34.475 45.575C34.1583 45.2916 34 44.9166 34 44.45C34 44.05 34.1333 43.7083 34.4 43.425C34.6667 43.1416 35 42.9666 35.4 42.9C37.3 42.6 38.95 41.75 40.35 40.35C41.75 38.95 42.6 37.3 42.9 35.4C42.9667 35 43.1417 34.6666 43.425 34.4C43.7083 34.1333 44.0333 34 44.4 34C44.8667 34 45.25 34.1583 45.55 34.475C45.85 34.7916 45.9667 35.15 45.9 35.55C45.5333 38.25 44.3917 40.5583 42.475 42.475C40.5583 44.3916 38.25 45.5333 35.55 45.9ZM3.55 14C3.08333 14 2.70833 13.8416 2.425 13.525C2.14167 13.2083 2.03333 12.85 2.1 12.45C2.46667 9.74998 3.60833 7.44165 5.525 5.52498C7.44167 3.60831 9.75 2.46665 12.45 2.09998C12.85 2.03331 13.2083 2.14165 13.525 2.42498C13.8417 2.70831 14 3.08331 14 3.54998C14 3.94998 13.8667 4.29165 13.6 4.57498C13.3333 4.85831 13 5.03331 12.6 5.09998C10.7 5.39998 9.05 6.24998 7.65 7.64998C6.25 9.04998 5.4 10.7 5.1 12.6C5.03333 13 4.85 13.3333 4.55 13.6C4.25 13.8666 3.91667 14 3.55 14ZM12.5 19.25C12.2333 19.5166 12.1 19.8416 12.1 20.225C12.1 20.6083 12.2333 20.9833 12.5 21.35C13.3333 22.3833 13.8083 23.575 13.925 24.925C14.0417 26.275 13.65 27.5666 12.75 28.8C12.5833 29 12.5083 29.2333 12.525 29.5C12.5417 29.7666 12.6333 29.9833 12.8 30.15C13.0333 30.3833 13.2917 30.4916 13.575 30.475C13.8583 30.4583 14.0833 30.3333 14.25 30.1C15.2833 28.7333 15.825 27.1166 15.875 25.25C15.925 23.3833 15.3667 21.75 14.2 20.35L29.45 5.09998C29.95 4.59998 30.5417 4.34998 31.225 4.34998C31.9083 4.34998 32.5 4.59998 33 5.09998C33.4667 5.56665 33.7167 6.14165 33.75 6.82498C33.7833 7.50831 33.5333 8.11665 33 8.64998L22.75 18.9C22.55 19.1 22.45 19.3333 22.45 19.6C22.45 19.8666 22.5333 20.1 22.7 20.3C22.9 20.4666 23.1333 20.5583 23.4 20.575C23.6667 20.5916 23.9 20.5 24.1 20.3L37.2 7.19998C37.6667 6.73331 38.2583 6.49998 38.975 6.49998C39.6917 6.49998 40.2833 6.73331 40.75 7.19998C41.2167 7.66665 41.45 8.25831 41.45 8.97498C41.45 9.69165 41.2167 10.2833 40.75 10.75L27.7 23.8C27.5 24 27.4 24.2416 27.4 24.525C27.4 24.8083 27.5 25.05 27.7 25.25C27.8667 25.45 28.0917 25.55 28.375 25.55C28.6583 25.55 28.9 25.45 29.1 25.25L40.05 14.3C40.55 13.8 41.1417 13.55 41.825 13.55C42.5083 13.55 43.1 13.8 43.6 14.3C44.0667 14.7666 44.3 15.3583 44.3 16.075C44.3 16.7916 44.0667 17.3833 43.6 17.85L31.2 30.2C31 30.4 30.9 30.6333 30.9 30.9C30.9 31.1666 31 31.4 31.2 31.6C31.4 31.8 31.6333 31.9083 31.9 31.925C32.1667 31.9416 32.4 31.85 32.6 31.65L40.75 23.5C41.2833 22.9666 41.8917 22.7166 42.575 22.75C43.2583 22.7833 43.8333 23.0333 44.3 23.5C44.7667 23.9666 45.0167 24.5416 45.05 25.225C45.0833 25.9083 44.8333 26.5166 44.3 27.05L30.15 41.2C28.55 42.8 26.7333 44 24.7 44.8C22.6667 45.6 20.5917 46 18.475 46C16.3583 46 14.2833 45.6 12.25 44.8C10.2167 44 8.4 42.8 6.8 41.2C5.2 39.6 4 37.7833 3.2 35.75C2.4 33.7166 2 31.6416 2 29.525C2 27.4083 2.4 25.3333 3.2 23.3C4 21.2666 5.2 19.45 6.8 17.85L16 8.64998C16.4667 8.18331 17.0583 7.93331 17.775 7.89998C18.4917 7.86665 19.1 8.09998 19.6 8.59998C20.0667 9.06665 20.3 9.65831 20.3 10.375C20.3 11.0916 20.0667 11.6833 19.6 12.15L12.5 19.25Z" fill="#2E4052"/>
</svg>
