<svg width="24" height="25" viewBox="0 0 24 25" fill="none" xmlns="http://www.w3.org/2000/svg">
<path d="M15.4999 14.5H14.7099L14.4299 14.23C15.6299 12.83 16.2499 10.92 15.9099 8.89002C15.4399 6.11002 13.1199 3.89002 10.3199 3.55002C6.08989 3.03002 2.52989 6.59001 3.04989 10.82C3.38989 13.62 5.60989 15.94 8.38989 16.41C10.4199 16.75 12.3299 16.13 13.7299 14.93L13.9999 15.21V16L18.2599 20.25C18.6699 20.66 19.3299 20.66 19.7399 20.25L19.7499 20.24C20.1599 19.83 20.1599 19.17 19.7499 18.76L15.4999 14.5ZM9.49989 14.5C7.00989 14.5 4.99989 12.49 4.99989 10C4.99989 7.51002 7.00989 5.50002 9.49989 5.50002C11.9899 5.50002 13.9999 7.51002 13.9999 10C13.9999 12.49 11.9899 14.5 9.49989 14.5ZM7.49989 9.50002H11.4999C11.7799 9.50002 11.9999 9.72002 11.9999 10C11.9999 10.28 11.7799 10.5 11.4999 10.5H7.49989C7.21989 10.5 6.99989 10.28 6.99989 10C6.99989 9.72002 7.21989 9.50002 7.49989 9.50002Z" fill="#2E4052"/>
</svg>
